<mxfile host="65bd71144e">
    <diagram id="sjamO5rOCd8oeBCfENNN" name="Page-1">
        <mxGraphModel dx="1086" dy="743" grid="1" gridSize="10" guides="1" tooltips="1" connect="1" arrows="1" fold="1" page="1" pageScale="1" pageWidth="827" pageHeight="1169" math="0" shadow="0">
            <root>
                <mxCell id="0"/>
                <mxCell id="1" parent="0"/>
                <mxCell id="2" value="http://ics2o.mths.ca" style="swimlane;whiteSpace=wrap;html=1;" vertex="1" parent="1">
                    <mxGeometry x="40" y="90" width="760" height="480" as="geometry"/>
                </mxCell>
                <mxCell id="7" value="Coin flip!" style="rounded=0;whiteSpace=wrap;html=1;" vertex="1" parent="2">
                    <mxGeometry y="20" width="760" height="60" as="geometry"/>
                </mxCell>
                <mxCell id="9" value="Click the button to flip the coin.&lt;br&gt;&lt;span style=&quot;font-weight: normal;&quot;&gt;50/50 chance to land on heads, or tails&lt;/span&gt;" style="text;strokeColor=none;fillColor=none;html=1;fontSize=24;fontStyle=1;verticalAlign=middle;align=center;" vertex="1" parent="2">
                    <mxGeometry x="330" y="100" width="100" height="40" as="geometry"/>
                </mxCell>
                <mxCell id="10" value="Flip coin" style="rounded=1;whiteSpace=wrap;html=1;" vertex="1" parent="2">
                    <mxGeometry x="240" y="320" width="120" height="60" as="geometry"/>
                </mxCell>
                <mxCell id="11" value="Add extra coin" style="rounded=1;whiteSpace=wrap;html=1;" vertex="1" parent="2">
                    <mxGeometry x="390" y="320" width="120" height="60" as="geometry"/>
                </mxCell>
                <mxCell id="12" value="&lt;font style=&quot;font-size: 36px;&quot;&gt;It is tails!&lt;/font&gt;" style="text;strokeColor=none;fillColor=none;html=1;fontSize=24;fontStyle=1;verticalAlign=middle;align=center;" vertex="1" parent="2">
                    <mxGeometry x="325" y="140" width="100" height="65" as="geometry"/>
                </mxCell>
                <mxCell id="14" value="&lt;font style=&quot;font-size: 24px;&quot;&gt;Tails&lt;/font&gt;" style="ellipse;whiteSpace=wrap;html=1;aspect=fixed;" vertex="1" parent="2">
                    <mxGeometry x="322.5" y="205" width="105" height="105" as="geometry"/>
                </mxCell>
            </root>
        </mxGraphModel>
    </diagram>
</mxfile>